{
  "accessors": [
    {
      "bufferView": 2,
      "componentType": 5126,
      "count": 2360,
      "max": [
        7.8649001121521,
        -19.053499221801758,
        175.66290283203125
      ],
      "min": [
        -8.365099906921387,
        -20.328800201416016,
        159.4320068359375
      ],
      "type": "VEC3"
    },
    {
      "bufferView": 2,
      "byteOffset": 28320,
      "componentType": 5126,
      "count": 2360,
      "max": [
        1.0,
        0.0033999804873019457,
        0.9999966621398926
      ],
      "min": [
        -1.0,
        -1.0,
        -0.999995231628418
      ],
      "type": "VEC3"
    },
    {
      "bufferView": 1,
      "componentType": 5126,
      "count": 2360,
      "max": [
        0.9674999713897705,
        0.1315000057220459
      ],
      "min": [
        0.5062999725341797,
        0.009399999864399433
      ],
      "type": "VEC2"
    },
    {
      "bufferView": 0,
      "componentType": 5125,
      "count": 11520,
      "type": "SCALAR"
    },
    {
      "bufferView": 2,
      "byteOffset": 56640,
      "componentType": 5126,
      "count": 3673,
      "max": [
        24.908100128173828,
        24.505399703979492,
        153.0980987548828
      ],
      "min": [
        -24.908100128173828,
        -25.310699462890625,
        3.616499900817871
      ],
      "type": "VEC3"
    },
    {
      "bufferView": 2,
      "byteOffset": 100716,
      "componentType": 5126,
      "count": 3673,
      "max": [
        1.0,
        1.0,
        1.0
      ],
      "min": [
        -1.0,
        -1.0,
        -1.0
      ],
      "type": "VEC3"
    },
    {
      "bufferView": 1,
      "byteOffset": 18880,
      "componentType": 5126,
      "count": 3673,
      "max": [
        0.9943000078201294,
        0.9915000200271606
      ],
      "min": [
        0.00570000009611249,
        0.07750000059604645
      ],
      "type": "VEC2"
    },
    {
      "bufferView": 0,
      "byteOffset": 46080,
      "componentType": 5125,
      "count": 20784,
      "type": "SCALAR"
    },
    {
      "bufferView": 2,
      "byteOffset": 144792,
      "componentType": 5126,
      "count": 1089,
      "max": [
        1.3257999420166016,
        -17.255399703979492,
        169.1195068359375
      ],
      "min": [
        -1.8259999752044678,
        -18.924800872802734,
        165.9676971435547
      ],
      "type": "VEC3"
    },
    {
      "bufferView": 2,
      "byteOffset": 157860,
      "componentType": 5126,
      "count": 1089,
      "max": [
        1.0,
        1.0,
        1.0
      ],
      "min": [
        -1.0,
        -1.0,
        -1.0
      ],
      "type": "VEC3"
    },
    {
      "bufferView": 1,
      "byteOffset": 48264,
      "componentType": 5126,
      "count": 1089,
      "max": [
        0.9384999871253967,
        0.1200999990105629
      ],
      "min": [
        0.5213000178337097,
        0.02329999953508377
      ],
      "type": "VEC2"
    },
    {
      "bufferView": 0,
      "byteOffset": 129216,
      "componentType": 5125,
      "count": 5184,
      "type": "SCALAR"
    },
    {
      "bufferView": 2,
      "byteOffset": 170928,
      "componentType": 5126,
      "count": 1490,
      "max": [
        7.793099880218506,
        -20.049699783325195,
        175.6678924560547
      ],
      "min": [
        -8.293299674987793,
        -23.595500946044922,
        159.58160400390625
      ],
      "type": "VEC3"
    },
    {
      "bufferView": 2,
      "byteOffset": 188808,
      "componentType": 5126,
      "count": 1490,
      "max": [
        0.963111400604248,
        1.0,
        0.963111400604248
      ],
      "min": [
        -0.963111400604248,
        -1.0,
        -0.9631373286247253
      ],
      "type": "VEC3"
    },
    {
      "bufferView": 1,
      "byteOffset": 56976,
      "componentType": 5126,
      "count": 1490,
      "max": [
        0.9729999899864197,
        0.13300000131130219
      ],
      "min": [
        0.6599000096321106,
        0.02969999983906746
      ],
      "type": "VEC2"
    },
    {
      "bufferView": 0,
      "byteOffset": 149952,
      "componentType": 5125,
      "count": 6912,
      "type": "SCALAR"
    },
    {
      "bufferView": 2,
      "byteOffset": 206688,
      "componentType": 5126,
      "count": 3802,
      "max": [
        21.140199661254883,
        0.9142000079154968,
        178.07550048828125
      ],
      "min": [
        -21.640399932861328,
        -21.29960060119629,
        157.36990356445313
      ],
      "type": "VEC3"
    },
    {
      "bufferView": 2,
      "byteOffset": 252312,
      "componentType": 5126,
      "count": 3802,
      "max": [
        1.0,
        0.7729976773262024,
        1.0
      ],
      "min": [
        -1.0,
        -0.9997238516807556,
        -1.0
      ],
      "type": "VEC3"
    },
    {
      "bufferView": 1,
      "byteOffset": 68896,
      "componentType": 5126,
      "count": 3802,
      "max": [
        0.9926000237464905,
        0.13670000433921814
      ],
      "min": [
        0.5073999762535095,
        0.00559999980032444
      ],
      "type": "VEC2"
    },
    {
      "bufferView": 0,
      "byteOffset": 177600,
      "componentType": 5125,
      "count": 19140,
      "type": "SCALAR"
    },
    {
      "bufferView": 2,
      "byteOffset": 297936,
      "componentType": 5126,
      "count": 726,
      "max": [
        24.858299255371094,
        24.455699920654297,
        31.782100677490234
      ],
      "min": [
        -24.858299255371094,
        -25.260900497436523,
        30.637100219726563
      ],
      "type": "VEC3"
    },
    {
      "bufferView": 2,
      "byteOffset": 306648,
      "componentType": 5126,
      "count": 726,
      "max": [
        1.0,
        1.0,
        1.0
      ],
      "min": [
        -1.0,
        -1.0,
        -0.9167407751083374
      ],
      "type": "VEC3"
    },
    {
      "bufferView": 1,
      "byteOffset": 99312,
      "componentType": 5126,
      "count": 726,
      "max": [
        0.6930000185966492,
        0.1598999947309494
      ],
      "min": [
        0.6302000284194946,
        0.15649999678134918
      ],
      "type": "VEC2"
    },
    {
      "bufferView": 0,
      "byteOffset": 254160,
      "componentType": 5125,
      "count": 3840,
      "type": "SCALAR"
    },
    {
      "bufferView": 2,
      "byteOffset": 315360,
      "componentType": 5126,
      "count": 1053,
      "max": [
        24.908100128173828,
        24.505399703979492,
        31.8262996673584
      ],
      "min": [
        -24.908100128173828,
        -25.310699462890625,
        30.552400588989258
      ],
      "type": "VEC3"
    },
    {
      "bufferView": 2,
      "byteOffset": 327996,
      "componentType": 5126,
      "count": 1053,
      "max": [
        1.0,
        1.0,
        1.0
      ],
      "min": [
        -1.0,
        -1.0,
        -0.9096009731292725
      ],
      "type": "VEC3"
    },
    {
      "bufferView": 1,
      "byteOffset": 105120,
      "componentType": 5126,
      "count": 1053,
      "max": [
        0.9943000078201294,
        0.17910000681877136
      ],
      "min": [
        0.00570000009611249,
        0.13860000669956207
      ],
      "type": "VEC2"
    },
    {
      "bufferView": 0,
      "byteOffset": 269520,
      "componentType": 5125,
      "count": 5376,
      "type": "SCALAR"
    },
    {
      "bufferView": 2,
      "byteOffset": 340632,
      "componentType": 5126,
      "count": 2611,
      "max": [
        23.932600021362305,
        23.530000686645508,
        176.8520050048828
      ],
      "min": [
        -23.932600021362305,
        -24.3351993560791,
        22.221099853515625
      ],
      "type": "VEC3"
    },
    {
      "bufferView": 2,
      "byteOffset": 371964,
      "componentType": 5126,
      "count": 2611,
      "max": [
        1.0,
        1.0,
        0.9999959468841553
      ],
      "min": [
        -1.0,
        -1.0,
        -0.9999995231628418
      ],
      "type": "VEC3"
    },
    {
      "bufferView": 1,
      "byteOffset": 113544,
      "componentType": 5126,
      "count": 2611,
      "max": [
        0.9729999899864197,
        0.16509999334812164
      ],
      "min": [
        0.2978000044822693,
        0.016200000420212746
      ],
      "type": "VEC2"
    },
    {
      "bufferView": 0,
      "byteOffset": 291024,
      "componentType": 5125,
      "count": 13056,
      "type": "SCALAR"
    },
    {
      "bufferView": 2,
      "byteOffset": 403296,
      "componentType": 5126,
      "count": 6254,
      "max": [
        38.34980010986328,
        38.34980010986328,
        182.44410705566406
      ],
      "min": [
        -38.34980010986328,
        -38.34980010986328,
        0.0005000000237487257
      ],
      "type": "VEC3"
    },
    {
      "bufferView": 2,
      "byteOffset": 478344,
      "componentType": 5126,
      "count": 6254,
      "max": [
        1.0,
        1.0,
        1.0
      ],
      "min": [
        -1.0,
        -1.0,
        -1.0
      ],
      "type": "VEC3"
    },
    {
      "bufferView": 1,
      "byteOffset": 134432,
      "componentType": 5126,
      "count": 6254,
      "max": [
        0.9943000078201294,
        0.2223999947309494
      ],
      "min": [
        0.00570000009611249,
        0.005100000184029341
      ],
      "type": "VEC2"
    },
    {
      "bufferView": 0,
      "byteOffset": 343248,
      "componentType": 5125,
      "count": 33000,
      "type": "SCALAR"
    }
  ],
  "asset": {
    "extras": {
      "author": "I am Frezzy (https://sketchfab.com/cgivn)",
      "license": "SKETCHFAB Editorial (https://sketchfab.com/licenses)",
      "source": "https://sketchfab.com/3d-models/bosch-360-degree-indoor-camera-95bc560b64fa4f429f9d739365d7bb3d",
      "title": "Bosch 360-Degree Indoor Camera"
    },
    "generator": "Sketchfab-13.74.0",
    "version": "2.0"
  },
  "bufferViews": [
    {
      "buffer": 0,
      "byteLength": 475248,
      "name": "floatBufferViews",
      "target": 34963
    },
    {
      "buffer": 0,
      "byteLength": 184464,
      "byteOffset": 475248,
      "byteStride": 8,
      "name": "floatBufferViews",
      "target": 34962
    },
    {
      "buffer": 0,
      "byteLength": 553392,
      "byteOffset": 659712,
      "byteStride": 12,
      "name": "floatBufferViews",
      "target": 34962
    }
  ],
  "buffers": [
    {
      "byteLength": 1213104,
      "uri": "assets/boschcamera/scene.bin"
    }
  ],
  "images": [
    {
      "uri": "assets/boschcamera/textures/Cover_baseColor.jpeg"
    },
    {
      "uri": "assets/boschcamera/textures/Mesh_metallicRoughness.png"
    }
  ],
  "materials": [
    {
      "doubleSided": true,
      "name": "Camera_Static",
      "pbrMetallicRoughness": {
        "baseColorFactor": [
          0.05131612420838911,
          0.0527657158591312,
          0.09001585088471749,
          1.0
        ],
        "roughnessFactor": 0.25
      }
    },
    {
      "doubleSided": true,
      "name": "Cover",
      "pbrMetallicRoughness": {
        "baseColorTexture": {
          "index": 0
        },
        "metallicFactor": 0.3,
        "roughnessFactor": 0.5
      }
    },
    {
      "alphaMode": "BLEND",
      "doubleSided": true,
      "name": "Crystal",
      "pbrMetallicRoughness": {
        "baseColorFactor": [
          0.04099185857696091,
          0.019100874302766614,
          0.20594136762876553,
          0.88
        ],
        "roughnessFactor": 0.0
      }
    },
    {
      "alphaMode": "BLEND",
      "doubleSided": true,
      "name": "Glass",
      "pbrMetallicRoughness": {
        "baseColorFactor": [
          0.0,
          0.0,
          0.0,
          0.11
        ],
        "metallicFactor": 0.0
      }
    },
    {
      "doubleSided": true,
      "name": "Gloss_Black",
      "pbrMetallicRoughness": {
        "baseColorFactor": [
          0.0039,
          0.0039,
          0.0039,
          1.0
        ],
        "metallicFactor": 0.0,
        "roughnessFactor": 0.0
      }
    },
    {
      "doubleSided": true,
      "emissiveFactor": [
        1.0,
        0.5647999999999997,
        0.5882
      ],
      "name": "Light",
      "pbrMetallicRoughness": {
        "baseColorFactor": [
          1.0,
          0.2823999999999999,
          0.2941,
          1.0
        ],
        "metallicFactor": 0.0
      }
    },
    {
      "doubleSided": true,
      "name": "Matte_Black",
      "pbrMetallicRoughness": {
        "baseColorFactor": [
          0.0039,
          0.0039,
          0.0039,
          1.0
        ],
        "metallicFactor": 0.0,
        "roughnessFactor": 0.5
      }
    },
    {
      "doubleSided": true,
      "name": "Mesh",
      "pbrMetallicRoughness": {
        "baseColorFactor": [
          0.2953043464009595,
          0.2953043464009595,
          0.2953043464009595,
          1.0
        ],
        "metallicRoughnessTexture": {
          "index": 1
        }
      }
    },
    {
      "alphaMode": "BLEND",
      "doubleSided": true,
      "name": "White_tran",
      "pbrMetallicRoughness": {
        "baseColorFactor": [
          0.8627,
          0.8627,
          0.8627,
          0.75
        ],
        "metallicFactor": 0.0,
        "roughnessFactor": 0.0
      }
    }
  ],
  "meshes": [
    {
      "name": "Object_0",
      "primitives": [
        {
          "attributes": {
            "NORMAL": 1,
            "POSITION": 0,
            "TEXCOORD_0": 2
          },
          "indices": 3,
          "material": 0,
          "mode": 4
        }
      ]
    },
    {
      "name": "Object_1",
      "primitives": [
        {
          "attributes": {
            "NORMAL": 5,
            "POSITION": 4,
            "TEXCOORD_0": 6
          },
          "indices": 7,
          "material": 1,
          "mode": 4
        }
      ]
    },
    {
      "name": "Object_2",
      "primitives": [
        {
          "attributes": {
            "NORMAL": 9,
            "POSITION": 8,
            "TEXCOORD_0": 10
          },
          "indices": 11,
          "material": 2,
          "mode": 4
        }
      ]
    },
    {
      "name": "Object_3",
      "primitives": [
        {
          "attributes": {
            "NORMAL": 13,
            "POSITION": 12,
            "TEXCOORD_0": 14
          },
          "indices": 15,
          "material": 3,
          "mode": 4
        }
      ]
    },
    {
      "name": "Object_4",
      "primitives": [
        {
          "attributes": {
            "NORMAL": 17,
            "POSITION": 16,
            "TEXCOORD_0": 18
          },
          "indices": 19,
          "material": 4,
          "mode": 4
        }
      ]
    },
    {
      "name": "Object_5",
      "primitives": [
        {
          "attributes": {
            "NORMAL": 21,
            "POSITION": 20,
            "TEXCOORD_0": 22
          },
          "indices": 23,
          "material": 5,
          "mode": 4
        }
      ]
    },
    {
      "name": "Object_6",
      "primitives": [
        {
          "attributes": {
            "NORMAL": 25,
            "POSITION": 24,
            "TEXCOORD_0": 26
          },
          "indices": 27,
          "material": 8,
          "mode": 4
        }
      ]
    },
    {
      "name": "Object_7",
      "primitives": [
        {
          "attributes": {
            "NORMAL": 29,
            "POSITION": 28,
            "TEXCOORD_0": 30
          },
          "indices": 31,
          "material": 6,
          "mode": 4
        }
      ]
    },
    {
      "name": "Object_8",
      "primitives": [
        {
          "attributes": {
            "NORMAL": 33,
            "POSITION": 32,
            "TEXCOORD_0": 34
          },
          "indices": 35,
          "material": 7,
          "mode": 4
        }
      ]
    }
  ],
  "nodes": [
    {
      "children": [
        1
      ],
      "matrix": [
        1.0,
        0.0,
        0.0,
        0.0,
        0.0,
        2.220446049250313e-16,
        -1.0,
        0.0,
        0.0,
        1.0,
        2.220446049250313e-16,
        0.0,
        0.0,
        0.0,
        0.0,
        1.0
      ],
      "name": "Sketchfab_model"
    },
    {
      "children": [
        2,
        3,
        4,
        5,
        6,
        7,
        8,
        9,
        10
      ],
      "name": "BOSCH 360 Indoor Camera.obj.cleaner.materialmerger.gles"
    },
    {
      "mesh": 0,
      "name": "Object_2"
    },
    {
      "mesh": 1,
      "name": "Object_3"
    },
    {
      "mesh": 2,
      "name": "Object_4"
    },
    {
      "mesh": 3,
      "name": "Object_5"
    },
    {
      "mesh": 4,
      "name": "Object_6"
    },
    {
      "mesh": 5,
      "name": "Object_7"
    },
    {
      "mesh": 6,
      "name": "Object_8"
    },
    {
      "mesh": 7,
      "name": "Object_9"
    },
    {
      "mesh": 8,
      "name": "Object_10"
    }
  ],
  "samplers": [
    {
      "magFilter": 9729,
      "minFilter": 9987,
      "wrapS": 10497,
      "wrapT": 10497
    }
  ],
  "scene": 0,
  "scenes": [
    {
      "name": "Sketchfab_Scene",
      "nodes": [
        0
      ]
    }
  ],
  "textures": [
    {
      "sampler": 0,
      "source": 0
    },
    {
      "sampler": 0,
      "source": 1
    }
  ]
}
